g Cube
v 0.2985645 0.3987775 0.09992096
v 0.1767135 0.2360273 0.253967
v -0.1767135 0.2360273 0.253967
v -0.2985645 0.3987775 0.09992096
v 0.3743496 -0.5 -0.1169215
v -0.3743496 -0.5 -0.1169215
v -0.3743496 -0.5 0.09992096
v 0.3743496 -0.5 0.09992096
v -0.3743496 -0.5 -0.1169215
v -0.3743496 0.5 -0.1169215
v -0.3743496 0.5 0.09992096
v -0.3743496 -0.5 0.09992096
v -0.3743496 0.5 -0.1169215
v -0.3743496 -0.5 -0.1169215
v 0.3743496 -0.5 -0.1169215
v 0.3743496 0.5 -0.1169215
v 0.3743496 0.5 -0.1169215
v 0.3743496 -0.5 -0.1169215
v 0.3743496 -0.5 0.09992096
v 0.3743496 0.5 0.09992096
v -0.3743496 0.5 -0.1169215
v 0.3743496 0.5 -0.1169215
v 0.3743496 0.5 0.09992096
v -0.3743496 0.5 0.09992096
v 0.1767135 0.2360273 0.253967
v 0.1767135 -0.2360273 0.253967
v -0.1767135 -0.2360273 0.253967
v -0.1767135 0.2360273 0.253967
v 0.2985645 -0.3987775 0.09992096
v 0.1767135 -0.2360273 0.253967
v 0.1767135 0.2360273 0.253967
v 0.2985645 0.3987775 0.09992096
v -0.2985645 0.3987775 0.09992096
v -0.1767135 0.2360273 0.253967
v -0.1767135 -0.2360273 0.253967
v -0.2985645 -0.3987775 0.09992096
v -0.2985645 -0.3987775 0.09992096
v -0.1767135 -0.2360273 0.253967
v 0.1767135 -0.2360273 0.253967
v 0.2985645 -0.3987775 0.09992096
v 0.2985645 -0.3987775 0.09992096
v 0.3743496 -0.5 0.09992096
v -0.3743496 -0.5 0.09992096
v -0.2985645 -0.3987775 0.09992096
v 0.2985645 0.3987775 0.09992096
v -0.3743496 0.5 0.09992096
v 0.3743496 0.5 0.09992096
v -0.2985645 0.3987775 0.09992096
vt 0.6650488 0.5400488
vt 0.6650488 0.5400488
vt 0.8349513 0.5400488
vt 0.8349513 0.5400488
vt 0.375 0.75
vt 0.375 1
vt 0.625 1
vt 0.625 0.75
vt 0.375 0
vt 0.375 0.25
vt 0.625 0.25
vt 0.625 0
vt 0.125 0.5
vt 0.125 0.75
vt 0.375 0.75
vt 0.375 0.5
vt 0.375 0.5
vt 0.375 0.75
vt 0.625 0.75
vt 0.625 0.5
vt 0.375 0.25
vt 0.375 0.5
vt 0.625 0.5
vt 0.625 0.25
vt 0.6650488 0.5400488
vt 0.6650488 0.7099513
vt 0.8349513 0.7099513
vt 0.8349513 0.5400488
vt 0.6650488 0.7099513
vt 0.6650488 0.7099513
vt 0.6650488 0.5400488
vt 0.6650488 0.5400488
vt 0.8349513 0.5400488
vt 0.8349513 0.5400488
vt 0.8349513 0.7099513
vt 0.8349513 0.7099513
vt 0.8349513 0.7099513
vt 0.8349513 0.7099513
vt 0.6650488 0.7099513
vt 0.6650488 0.7099513
vt 0.6650488 0.7099513
vt 0.625 0.75
vt 0.875 0.75
vt 0.8349513 0.7099513
vt 0.6650488 0.5400488
vt 0.875 0.5
vt 0.625 0.5
vt 0.8349513 0.5400488
vn 0 0.6874192 0.7262609
vn 0 0.6874192 0.7262609
vn 0 0.6874192 0.7262609
vn 0 0.6874192 0.7262609
vn 0 -1 0
vn 0 -1 0
vn 0 -1 0
vn 0 -1 0
vn -1 0 0
vn -1 0 0
vn -1 0 0
vn -1 0 0
vn 0 0 -1
vn 0 0 -1
vn 0 0 -1
vn 0 0 -1
vn 1 0 0
vn 1 0 0
vn 1 0 0
vn 1 0 0
vn 0 1 0
vn 0 1 0
vn 0 1 0
vn 0 1 0
vn 0 0 1
vn 0 0 1
vn 0 0 1
vn 0 0 1
vn 0.7842988 0 0.6203831
vn 0.7842988 0 0.6203831
vn 0.7842988 0 0.6203831
vn 0.7842988 0 0.6203831
vn -0.7842988 0 0.6203831
vn -0.7842988 0 0.6203831
vn -0.7842988 0 0.6203831
vn -0.7842988 0 0.6203831
vn 0 -0.6874192 0.7262609
vn 0 -0.6874192 0.7262609
vn 0 -0.6874192 0.7262609
vn 0 -0.6874192 0.7262609
vn 0 0 1
vn 0 0 1
vn 0 0 1
vn 0 0 1
vn 0 0 1
vn 0 0 1
vn 0 0 1
vn 0 0 1
g Cube_0
f 3/3/3 2/2/2 1/1/1
f 4/4/4 3/3/3 1/1/1
f 7/7/7 6/6/6 5/5/5
f 8/8/8 7/7/7 5/5/5
f 11/11/11 10/10/10 9/9/9
f 12/12/12 11/11/11 9/9/9
f 15/15/15 14/14/14 13/13/13
f 16/16/16 15/15/15 13/13/13
f 19/19/19 18/18/18 17/17/17
f 20/20/20 19/19/19 17/17/17
f 23/23/23 22/22/22 21/21/21
f 24/24/24 23/23/23 21/21/21
f 27/27/27 26/26/26 25/25/25
f 28/28/28 27/27/27 25/25/25
f 31/31/31 30/30/30 29/29/29
f 32/32/32 31/31/31 29/29/29
f 35/35/35 34/34/34 33/33/33
f 36/36/36 35/35/35 33/33/33
f 39/39/39 38/38/38 37/37/37
f 40/40/40 39/39/39 37/37/37
f 43/43/43 42/42/42 41/41/41
f 44/44/44 43/43/43 41/41/41
f 41/41/41 42/42/42 45/45/45
f 46/46/46 43/43/43 44/44/44
f 42/42/42 47/47/47 45/45/45
f 48/48/48 46/46/46 44/44/44
f 45/45/45 47/47/47 48/48/48
f 47/47/47 46/46/46 48/48/48
