g Cube
v 0.5137047 0.040434 0.8570066
v 0.7276159 6.615032E-09 0.7460083
v 0.5137047 -0.040434 0.8570066
v 0.5017528 -0.028589 0.8016594
v 0.7276159 6.615032E-09 0.7460083
v 0.5017528 0.028589 0.8016594
v -0.5137047 0.040434 0.8570066
v -0.5137047 -0.040434 0.8570066
v -0.7276159 6.615032E-09 0.7460083
v -0.5017528 -0.028589 0.8016594
v -0.5017528 0.028589 0.8016594
v -0.7276159 6.615032E-09 0.7460083
v 0 0.03961025 -0.8813689
v 0.02126804 0.03961025 -0.8813689
v 0.03149131 0.04521196 -0.4108802
v 0 0.04521196 -0.4108802
v 0.07266252 0.06037379 0.9364835
v 0 0.06037379 0.9364835
v 0 0.02332921 0.978071
v 0 0.06037379 0.9364835
v 0.07266252 0.06037379 0.9364835
v 0.09338933 0.03917519 0.9602816
v 0.09338933 0.02332921 0.978071
v 0.04196618 0.01813172 -0.8813689
v 0.04196618 -0.01813172 -0.8813689
v 0.05220327 -0.02373411 -0.4108802
v 0.05220327 0.02373411 -0.4108802
v 0.09338933 -0.03889662 0.9364835
v 0.09338933 0.03889661 0.9364835
v 0.09338933 -0.02332921 0.978071
v 0.09338933 -0.03917519 0.9602816
v 0.09338933 0.02332921 0.978071
v 0.09338933 0.03917519 0.9602816
v 0.03149131 -0.04521196 -0.4108802
v 0 -0.06037379 0.9364835
v 0.07266252 -0.06037379 0.9364835
v 0 -0.04521196 -0.4108802
v 0.02126804 -0.03961025 -0.8813689
v 0 -0.03961025 -0.8813689
v 0.02126804 -0.03961025 -0.8813689
v 0.04196618 -0.01813172 -0.8813689
v 0.04196618 0.01813172 -0.8813689
v 0.02126804 0.03961025 -0.8813689
v 0 -0.03961025 -0.8813689
v 0 0.03961025 -0.8813689
v 0 0.06456373 0.8097641
v 0.1019312 0.07097046 0.9228517
v 0 0.07097046 0.9228517
v 0.09504858 0.06456373 0.8097641
v 0 0.0628877 0.6966764
v 0.09315407 0.0628877 0.6966764
v 0.1019312 -0.07097046 0.9228517
v 0.2677679 -0.05889636 0.9144815
v 0.268325 -0.04164288 0.8191211
v 0.09504858 -0.06456373 0.8097641
v 0 0.0628877 0.6966764
v 0 -0.0628877 0.6966764
v 0.09315407 -0.0628877 0.6966764
v 0.09315407 0.0628877 0.6966764
v 0.09315407 0.0628877 0.6966764
v 0.09315407 -0.0628877 0.6966764
v 0.09504858 -0.06456373 0.8097641
v 0.09504858 0.06456373 0.8097641
v 0.09338933 -0.03917519 0.9602816
v 0.07266252 -0.06037379 0.9364835
v 0 -0.06037379 0.9364835
v 0 -0.02332921 0.978071
v 0.09338933 -0.02332921 0.978071
v 0.09315407 -0.0628877 0.6966764
v 0 -0.0628877 0.6966764
v 0 -0.06456373 0.8097641
v 0.09504858 -0.06456373 0.8097641
v 0 -0.07097046 0.9228517
v 0.1019312 -0.07097046 0.9228517
v 0.1019312 0.07097046 0.9228517
v 0.1019312 -0.07097046 0.9228517
v 0 -0.07097046 0.9228517
v 0 0.07097046 0.9228517
v 0.268325 0.04164288 0.8191211
v 0.5137047 0.040434 0.8570066
v 0.2677679 0.05889636 0.9144815
v 0.5017528 0.028589 0.8016594
v 0.7276159 6.615032E-09 0.7460083
v 0.1019312 0.07097046 0.9228517
v 0.2677679 0.05889636 0.9144815
v 0.2677679 -0.05889636 0.9144815
v 0.1019312 -0.07097046 0.9228517
v 0.09504858 -0.06456373 0.8097641
v 0.268325 -0.04164288 0.8191211
v 0.268325 0.04164288 0.8191211
v 0.09504858 0.06456373 0.8097641
v 0.09504858 0.06456373 0.8097641
v 0.268325 0.04164288 0.8191211
v 0.2677679 0.05889636 0.9144815
v 0.1019312 0.07097046 0.9228517
v 0.5137047 -0.040434 0.8570066
v 0.7276159 6.615032E-09 0.7460083
v 0.5017528 -0.028589 0.8016594
v 0.2677679 -0.05889636 0.9144815
v 0.268325 -0.04164288 0.8191211
v 0.2677679 0.05889636 0.9144815
v 0.5137047 0.040434 0.8570066
v 0.5137047 -0.040434 0.8570066
v 0.2677679 -0.05889636 0.9144815
v 0.268325 -0.04164288 0.8191211
v 0.5017528 -0.028589 0.8016594
v 0.5017528 0.028589 0.8016594
v 0.268325 0.04164288 0.8191211
v 0.09338933 0.02332921 0.978071
v 0.09338933 -0.02332921 0.978071
v 0 -0.02332921 0.978071
v 0 0.02332921 0.978071
v 0.09338933 0.03889661 0.9364835
v 0.09338933 0.03917519 0.9602816
v 0.07266252 0.06037379 0.9364835
v 0.03149131 0.04521196 -0.4108802
v 0.05220327 0.02373411 -0.4108802
v 0.02126804 0.03961025 -0.8813689
v 0.04196618 0.01813172 -0.8813689
v 0.07266252 -0.06037379 0.9364835
v 0.09338933 -0.03917519 0.9602816
v 0.09338933 -0.03889662 0.9364835
v 0.05220327 -0.02373411 -0.4108802
v 0.03149131 -0.04521196 -0.4108802
v 0.04196618 -0.01813172 -0.8813689
v 0.02126804 -0.03961025 -0.8813689
v 0 0.03961025 -0.8813689
v -0.03149131 0.04521196 -0.4108802
v -0.02126804 0.03961025 -0.8813689
v 0 0.04521196 -0.4108802
v -0.07266252 0.06037379 0.9364835
v 0 0.06037379 0.9364835
v -0.09338933 0.03917519 0.9602816
v -0.07266252 0.06037379 0.9364835
v 0 0.06037379 0.9364835
v 0 0.02332921 0.978071
v -0.09338933 0.02332921 0.978071
v -0.04196618 0.01813172 -0.8813689
v -0.05220327 -0.02373411 -0.4108802
v -0.04196618 -0.01813172 -0.8813689
v -0.05220327 0.02373411 -0.4108802
v -0.09338933 -0.03889662 0.9364835
v -0.09338933 0.03889661 0.9364835
v -0.09338933 -0.02332921 0.978071
v -0.09338933 -0.03917519 0.9602816
v -0.09338933 0.02332921 0.978071
v -0.09338933 0.03917519 0.9602816
v -0.03149131 -0.04521196 -0.4108802
v -0.07266252 -0.06037379 0.9364835
v 0 -0.06037379 0.9364835
v 0 -0.04521196 -0.4108802
v -0.02126804 -0.03961025 -0.8813689
v 0 -0.03961025 -0.8813689
v -0.02126804 -0.03961025 -0.8813689
v 0 -0.03961025 -0.8813689
v 0 0.03961025 -0.8813689
v -0.02126804 0.03961025 -0.8813689
v -0.04196618 -0.01813172 -0.8813689
v -0.04196618 0.01813172 -0.8813689
v 0 0.06456373 0.8097641
v 0 0.07097046 0.9228517
v -0.1019312 0.07097046 0.9228517
v -0.09504858 0.06456373 0.8097641
v 0 0.0628877 0.6966764
v -0.09315407 0.0628877 0.6966764
v -0.1019312 -0.07097046 0.9228517
v -0.09504858 -0.06456373 0.8097641
v -0.268325 -0.04164288 0.8191211
v -0.2677679 -0.05889636 0.9144815
v 0 0.0628877 0.6966764
v -0.09315407 0.0628877 0.6966764
v -0.09315407 -0.0628877 0.6966764
v 0 -0.0628877 0.6966764
v -0.09315407 0.0628877 0.6966764
v -0.09504858 0.06456373 0.8097641
v -0.09504858 -0.06456373 0.8097641
v -0.09315407 -0.0628877 0.6966764
v 0 -0.02332921 0.978071
v 0 -0.06037379 0.9364835
v -0.07266252 -0.06037379 0.9364835
v -0.09338933 -0.03917519 0.9602816
v -0.09338933 -0.02332921 0.978071
v 0 0.06037379 0.9364835
v 0 -0.06037379 0.9364835
v 0 -0.02332921 0.978071
v 0 0.02332921 0.978071
v -0.09315407 -0.0628877 0.6966764
v 0 -0.06456373 0.8097641
v 0 -0.0628877 0.6966764
v -0.09504858 -0.06456373 0.8097641
v 0 -0.07097046 0.9228517
v -0.1019312 -0.07097046 0.9228517
v -0.1019312 0.07097046 0.9228517
v 0 0.07097046 0.9228517
v 0 -0.07097046 0.9228517
v -0.1019312 -0.07097046 0.9228517
v -0.268325 0.04164288 0.8191211
v -0.2677679 0.05889636 0.9144815
v -0.5137047 0.040434 0.8570066
v -0.5017528 0.028589 0.8016594
v -0.7276159 6.615032E-09 0.7460083
v -0.1019312 0.07097046 0.9228517
v -0.1019312 -0.07097046 0.9228517
v -0.2677679 -0.05889636 0.9144815
v -0.2677679 0.05889636 0.9144815
v -0.09504858 -0.06456373 0.8097641
v -0.09504858 0.06456373 0.8097641
v -0.268325 0.04164288 0.8191211
v -0.268325 -0.04164288 0.8191211
v -0.09504858 0.06456373 0.8097641
v -0.1019312 0.07097046 0.9228517
v -0.2677679 0.05889636 0.9144815
v -0.268325 0.04164288 0.8191211
v -0.5137047 -0.040434 0.8570066
v -0.5017528 -0.028589 0.8016594
v -0.7276159 6.615032E-09 0.7460083
v -0.2677679 -0.05889636 0.9144815
v -0.268325 -0.04164288 0.8191211
v -0.2677679 0.05889636 0.9144815
v -0.2677679 -0.05889636 0.9144815
v -0.5137047 -0.040434 0.8570066
v -0.5137047 0.040434 0.8570066
v -0.268325 -0.04164288 0.8191211
v -0.268325 0.04164288 0.8191211
v -0.5017528 0.028589 0.8016594
v -0.5017528 -0.028589 0.8016594
v -0.09338933 0.02332921 0.978071
v 0 0.02332921 0.978071
v 0 -0.02332921 0.978071
v -0.09338933 -0.02332921 0.978071
v -0.09338933 0.03889661 0.9364835
v -0.07266252 0.06037379 0.9364835
v -0.09338933 0.03917519 0.9602816
v -0.03149131 0.04521196 -0.4108802
v -0.05220327 0.02373411 -0.4108802
v -0.02126804 0.03961025 -0.8813689
v -0.04196618 0.01813172 -0.8813689
v -0.07266252 -0.06037379 0.9364835
v -0.09338933 -0.03889662 0.9364835
v -0.09338933 -0.03917519 0.9602816
v -0.05220327 -0.02373411 -0.4108802
v -0.03149131 -0.04521196 -0.4108802
v -0.04196618 -0.01813172 -0.8813689
v -0.02126804 -0.03961025 -0.8813689
vt 0.2287598 0.2939453
vt 0.145752 0
vt 0.06274414 0.2939453
vt 0.2924805 0.559082
vt 0.3510742 0.8691406
vt 0.4099121 0.559082
vt 0.2287598 0.2939453
vt 0.06274414 0.2939453
vt 0.145752 0
vt 0.2924805 0.559082
vt 0.4099121 0.559082
vt 0.3510742 0.8691406
vt 0.7724609 0.2492676
vt 0.7216797 0.2492676
vt 0.6972656 0.3007813
vt 0.7724609 0.3007813
vt 0.5996094 0.4484863
vt 0.7724609 0.4484863
vt 0.7714844 0.5605469
vt 0.7719727 0.6103516
vt 0.9443359 0.6103516
vt 0.9936523 0.5820313
vt 0.9936523 0.5605469
vt 0.8183594 0.2498779
vt 0.8974609 0.2498779
vt 0.909668 0.1962891
vt 0.8061523 0.1962891
vt 0.9423828 0.03927612
vt 0.7729492 0.03927612
vt 0.9086914 0.03485107
vt 0.9433594 0.03674316
vt 0.8066406 0.03485107
vt 0.7724609 0.03674316
vt 0.6254883 0.09405518
vt 0.550293 0.2416992
vt 0.7231445 0.2416992
vt 0.550293 0.09405518
vt 0.6010742 0.04241943
vt 0.550293 0.04241943
vt 0.8212891 0.2498779
vt 0.7724609 0.2785645
vt 0.7724609 0.3273926
vt 0.8212891 0.3562012
vt 0.8720703 0.2498779
vt 0.8720703 0.3562012
vt 0.484375 0.9858398
vt 0.4626465 0.8461914
vt 0.4626465 0.9858398
vt 0.484375 0.8554688
vt 0.503418 0.9858398
vt 0.503418 0.8579102
vt 0.2054443 0.009521484
vt 0.2302246 0.2374268
vt 0.265625 0.2381592
vt 0.2185059 0
vt 0.4509277 0.9873047
vt 0.4509277 0.8798828
vt 0.3100586 0.8798828
vt 0.3100586 0.9873047
vt 0.489502 0.6733398
vt 0.489502 0.8320313
vt 0.5087891 0.8344727
vt 0.5087891 0.6713867
vt 0.9936523 0.4768066
vt 0.9443359 0.4484863
vt 0.7719727 0.4484863
vt 0.7714844 0.4980469
vt 0.9936523 0.4980469
vt 0.503418 0.8579102
vt 0.503418 0.9858398
vt 0.5229492 0.9858398
vt 0.5229492 0.8554688
vt 0.5444336 0.9858398
vt 0.5444336 0.8461914
vt 0.2915039 0.8598633
vt 0 0.8598633
vt 0 1
vt 0.2915039 1
vt 0.4367676 0.2381592
vt 0.4343262 0.5751953
vt 0.472168 0.2374268
vt 0.4099121 0.559082
vt 0.3510742 0.8691406
vt 0.2915039 0.8598633
vt 0.2668457 0.6318359
vt 0.02479553 0.6318359
vt 0 0.8598633
vt 0.2185059 0
vt 0.265625 0.2381592
vt 0.4367676 0.2381592
vt 0.4838867 0
vt 0.4838867 0
vt 0.4367676 0.2381592
vt 0.472168 0.2374268
vt 0.4968262 0.009521484
vt 0.2680664 0.5751953
vt 0.3510742 0.8691406
vt 0.2924805 0.559082
vt 0.2302246 0.2374268
vt 0.265625 0.2381592
vt 0.2668457 0.6318359
vt 0.2287598 0.2939453
vt 0.06274414 0.2939453
vt 0.02479553 0.6318359
vt 0.265625 0.2381592
vt 0.2924805 0.559082
vt 0.4099121 0.559082
vt 0.4367676 0.2381592
vt 0.9936523 0.5605469
vt 0.9936523 0.4980469
vt 0.7714844 0.4980469
vt 0.7714844 0.5605469
vt 0.550293 0.440918
vt 0.550293 0.4436035
vt 0.5996094 0.4484863
vt 0.6972656 0.3007813
vt 0.6484375 0.2932129
vt 0.7216797 0.2492676
vt 0.6728516 0.2416992
vt 0.7231445 0.2416992
vt 0.7724609 0.2366943
vt 0.7724609 0.2341309
vt 0.6743164 0.08648682
vt 0.6254883 0.09405518
vt 0.6503906 0.03485107
vt 0.6010742 0.04241943
vt 0.7724609 0.2492676
vt 0.6972656 0.3007813
vt 0.7216797 0.2492676
vt 0.7724609 0.3007813
vt 0.5996094 0.4484863
vt 0.7724609 0.4484863
vt 0.9936523 0.5820313
vt 0.9443359 0.6103516
vt 0.7719727 0.6103516
vt 0.7714844 0.5605469
vt 0.9936523 0.5605469
vt 0.8183594 0.2498779
vt 0.909668 0.1962891
vt 0.8974609 0.2498779
vt 0.8061523 0.1962891
vt 0.9423828 0.03927612
vt 0.7729492 0.03927612
vt 0.9086914 0.03485107
vt 0.9433594 0.03674316
vt 0.8066406 0.03485107
vt 0.7724609 0.03674316
vt 0.6254883 0.09405518
vt 0.7231445 0.2416992
vt 0.550293 0.2416992
vt 0.550293 0.09405518
vt 0.6010742 0.04241943
vt 0.550293 0.04241943
vt 0.8212891 0.2498779
vt 0.8720703 0.2498779
vt 0.8720703 0.3562012
vt 0.8212891 0.3562012
vt 0.7724609 0.2785645
vt 0.7724609 0.3273926
vt 0.484375 0.9858398
vt 0.4626465 0.9858398
vt 0.4626465 0.8461914
vt 0.484375 0.8554688
vt 0.503418 0.9858398
vt 0.503418 0.8579102
vt 0.2054443 0.009521484
vt 0.2185059 0
vt 0.265625 0.2381592
vt 0.2302246 0.2374268
vt 0.4509277 0.9873047
vt 0.3100586 0.9873047
vt 0.3100586 0.8798828
vt 0.4509277 0.8798828
vt 0.489502 0.6733398
vt 0.5087891 0.6713867
vt 0.5087891 0.8344727
vt 0.489502 0.8320313
vt 0.7714844 0.4980469
vt 0.7719727 0.4484863
vt 0.9443359 0.4484863
vt 0.9936523 0.4768066
vt 0.9936523 0.4980469
vt 0.9663086 0.2498779
vt 0.9663086 0.4118652
vt 0.9589844 0.3620605
vt 0.9589844 0.2995605
vt 0.503418 0.8579102
vt 0.5229492 0.9858398
vt 0.503418 0.9858398
vt 0.5229492 0.8554688
vt 0.5444336 0.9858398
vt 0.5444336 0.8461914
vt 0.2915039 0.8598633
vt 0.2915039 1
vt 0 1
vt 0 0.8598633
vt 0.4367676 0.2381592
vt 0.472168 0.2374268
vt 0.4343262 0.5751953
vt 0.4099121 0.559082
vt 0.3510742 0.8691406
vt 0.2915039 0.8598633
vt 0 0.8598633
vt 0.02479553 0.6318359
vt 0.2668457 0.6318359
vt 0.2185059 0
vt 0.4838867 0
vt 0.4367676 0.2381592
vt 0.265625 0.2381592
vt 0.4838867 0
vt 0.4968262 0.009521484
vt 0.472168 0.2374268
vt 0.4367676 0.2381592
vt 0.2680664 0.5751953
vt 0.2924805 0.559082
vt 0.3510742 0.8691406
vt 0.2302246 0.2374268
vt 0.265625 0.2381592
vt 0.2668457 0.6318359
vt 0.02479553 0.6318359
vt 0.06274414 0.2939453
vt 0.2287598 0.2939453
vt 0.265625 0.2381592
vt 0.4367676 0.2381592
vt 0.4099121 0.559082
vt 0.2924805 0.559082
vt 0.9936523 0.5605469
vt 0.7714844 0.5605469
vt 0.7714844 0.4980469
vt 0.9936523 0.4980469
vt 0.550293 0.440918
vt 0.5996094 0.4484863
vt 0.550293 0.4436035
vt 0.6972656 0.3007813
vt 0.6484375 0.2932129
vt 0.7216797 0.2492676
vt 0.6728516 0.2416992
vt 0.7231445 0.2416992
vt 0.7724609 0.2341309
vt 0.7724609 0.2366943
vt 0.6743164 0.08648682
vt 0.6254883 0.09405518
vt 0.6503906 0.03485107
vt 0.6010742 0.04241943
vn 0.4606934 0 0.8876953
vn 0.4606934 0 0.8876953
vn 0.4606934 0 0.8876953
vn -0.2392578 0 -0.9711914
vn -0.2392578 0 -0.9711914
vn -0.2392578 0 -0.9711914
vn -0.4606934 0 0.8876953
vn -0.4606934 0 0.8876953
vn -0.4606934 0 0.8876953
vn 0.2392578 0 -0.9711914
vn 0.2392578 0 -0.9711914
vn 0.2392578 0 -0.9711914
vn 0 1 -0.01190186
vn 0 1 -0.01190186
vn 0 1 -0.01190186
vn 0 1 -0.01190186
vn 0 1 -0.01125336
vn 0 1 -0.01125336
vn 0 0.746582 0.6650391
vn 0 0.746582 0.6650391
vn 0 0.746582 0.6650391
vn 0 0.746582 0.6650391
vn 0 0.746582 0.6650391
vn 1 0 -0.02175903
vn 1 0 -0.02175903
vn 1 0 -0.02175903
vn 1 0 -0.02175903
vn 0.9995117 0 -0.0305481
vn 0.9995117 0 -0.0305481
vn 1 0 0
vn 1 0 0
vn 1 0 0
vn 1 0 0
vn 0 -1 -0.01125336
vn 0 -1 -0.01125336
vn 0 -1 -0.01125336
vn 0 -1 -0.01125336
vn 0 -1 -0.01190186
vn 0 -1 -0.01190186
vn 0 0 -1
vn 0 0 -1
vn 0 0 -1
vn 0 0 -1
vn 0 0 -1
vn 0 0 -1
vn 0 0.9985352 -0.05654907
vn 0 0.9985352 -0.05654907
vn 0 0.9985352 -0.05654907
vn 0 0.9985352 -0.05654907
vn 0 1 -0.01481628
vn 0 1 -0.01481628
vn 0.1022949 -0.9882813 -0.1152344
vn 0.1022949 -0.9882813 -0.1152344
vn 0.1022949 -0.9882813 -0.1152344
vn 0.1022949 -0.9882813 -0.1152344
vn 0 0 -1
vn 0 0 -1
vn 0 0 -1
vn 0 0 -1
vn 1 0 -0.01675415
vn 1 0 -0.01675415
vn 1 0 -0.01675415
vn 1 0 -0.01675415
vn 0 -0.746582 0.6650391
vn 0 -0.746582 0.6650391
vn 0 -0.746582 0.6650391
vn 0 -0.746582 0.6650391
vn 0 -0.746582 0.6650391
vn 0 -1 -0.01481628
vn 0 -1 -0.01481628
vn 0 -1 -0.01481628
vn 0 -1 -0.01481628
vn 0 -0.9985352 -0.05654907
vn 0 -0.9985352 -0.05654907
vn 0 0 1
vn 0 0 1
vn 0 0 1
vn 0 0 1
vn 0.03448486 0.980957 -0.1920166
vn 0.03448486 0.980957 -0.1920166
vn 0.03448486 0.980957 -0.1920166
vn 0.03448486 0.980957 -0.1920166
vn 0.06817627 0.9726563 -0.2229004
vn 0.05041504 0 0.9985352
vn 0.05041504 0 0.9985352
vn 0.05041504 0 0.9985352
vn 0.05041504 0 0.9985352
vn 0.05392456 0 -0.9985352
vn 0.05392456 0 -0.9985352
vn 0.05392456 0 -0.9985352
vn 0.05392456 0 -0.9985352
vn 0.1022949 0.9882813 -0.1152344
vn 0.1022949 0.9882813 -0.1152344
vn 0.1022949 0.9882813 -0.1152344
vn 0.1022949 0.9882813 -0.1152344
vn 0.06817627 -0.9726563 -0.2229004
vn 0.06817627 -0.9726563 -0.2229004
vn 0.06817627 -0.9726563 -0.2229004
vn 0.03448486 -0.980957 -0.1920166
vn 0.03448486 -0.980957 -0.1920166
vn 0.2275391 0 0.9736328
vn 0.2275391 0 0.9736328
vn 0.2275391 0 0.9736328
vn 0.2275391 0 0.9736328
vn -0.07458496 0 -0.9970703
vn -0.07458496 0 -0.9970703
vn -0.07458496 0 -0.9970703
vn -0.07458496 0 -0.9970703
vn 0 0 1
vn 0 0 1
vn 0 0 1
vn 0 0 1
vn 0.7197266 0.6943359 -0.008125305
vn 0.7197266 0.6943359 -0.008125305
vn 0.7197266 0.6943359 -0.008125305
vn 0.7197266 0.6938477 -0.02391052
vn 0.7197266 0.6938477 -0.02391052
vn 0.7197266 0.6938477 -0.02391052
vn 0.7197266 0.6938477 -0.02391052
vn 0.7197266 -0.6943359 -0.008125305
vn 0.7197266 -0.6943359 -0.008125305
vn 0.7197266 -0.6943359 -0.008125305
vn 0.7197266 -0.6938477 -0.02391052
vn 0.7197266 -0.6938477 -0.02391052
vn 0.7197266 -0.6938477 -0.02391052
vn 0.7197266 -0.6938477 -0.02391052
vn 0 1 -0.01190186
vn 0 1 -0.01190186
vn 0 1 -0.01190186
vn 0 1 -0.01190186
vn 0 1 -0.01125336
vn 0 1 -0.01125336
vn 0 0.746582 0.6650391
vn 0 0.746582 0.6650391
vn 0 0.746582 0.6650391
vn 0 0.746582 0.6650391
vn 0 0.746582 0.6650391
vn -1 0 -0.02175903
vn -1 0 -0.02175903
vn -1 0 -0.02175903
vn -1 0 -0.02175903
vn -0.9995117 0 -0.0305481
vn -0.9995117 0 -0.0305481
vn -1 0 0
vn -1 0 0
vn -1 0 0
vn -1 0 0
vn 0 -1 -0.01125336
vn 0 -1 -0.01125336
vn 0 -1 -0.01125336
vn 0 -1 -0.01125336
vn 0 -1 -0.01190186
vn 0 -1 -0.01190186
vn 0 0 -1
vn 0 0 -1
vn 0 0 -1
vn 0 0 -1
vn 0 0 -1
vn 0 0 -1
vn 0 0.9985352 -0.05654907
vn 0 0.9985352 -0.05654907
vn 0 0.9985352 -0.05654907
vn 0 0.9985352 -0.05654907
vn 0 1 -0.01481628
vn 0 1 -0.01481628
vn -0.1022949 -0.9882813 -0.1152344
vn -0.1022949 -0.9882813 -0.1152344
vn -0.1022949 -0.9882813 -0.1152344
vn -0.1022949 -0.9882813 -0.1152344
vn 0 0 -1
vn 0 0 -1
vn 0 0 -1
vn 0 0 -1
vn -1 0 -0.01675415
vn -1 0 -0.01675415
vn -1 0 -0.01675415
vn -1 0 -0.01675415
vn 0 -0.746582 0.6650391
vn 0 -0.746582 0.6650391
vn 0 -0.746582 0.6650391
vn 0 -0.746582 0.6650391
vn 0 -0.746582 0.6650391
vn 1 0 0
vn 1 0 0
vn 1 0 0
vn 1 0 0
vn 0 -1 -0.01481628
vn 0 -1 -0.01481628
vn 0 -1 -0.01481628
vn 0 -1 -0.01481628
vn 0 -0.9985352 -0.05654907
vn 0 -0.9985352 -0.05654907
vn 0 0 1
vn 0 0 1
vn 0 0 1
vn 0 0 1
vn -0.03448486 0.980957 -0.1920166
vn -0.03448486 0.980957 -0.1920166
vn -0.03448486 0.980957 -0.1920166
vn -0.03448486 0.980957 -0.1920166
vn -0.06817627 0.9726563 -0.2229004
vn -0.05041504 0 0.9985352
vn -0.05041504 0 0.9985352
vn -0.05041504 0 0.9985352
vn -0.05041504 0 0.9985352
vn -0.05392456 0 -0.9985352
vn -0.05392456 0 -0.9985352
vn -0.05392456 0 -0.9985352
vn -0.05392456 0 -0.9985352
vn -0.1022949 0.9882813 -0.1152344
vn -0.1022949 0.9882813 -0.1152344
vn -0.1022949 0.9882813 -0.1152344
vn -0.1022949 0.9882813 -0.1152344
vn -0.06817627 -0.9726563 -0.2229004
vn -0.06817627 -0.9726563 -0.2229004
vn -0.06817627 -0.9726563 -0.2229004
vn -0.03448486 -0.980957 -0.1920166
vn -0.03448486 -0.980957 -0.1920166
vn -0.2275391 0 0.9736328
vn -0.2275391 0 0.9736328
vn -0.2275391 0 0.9736328
vn -0.2275391 0 0.9736328
vn 0.07458496 0 -0.9970703
vn 0.07458496 0 -0.9970703
vn 0.07458496 0 -0.9970703
vn 0.07458496 0 -0.9970703
vn 0 0 1
vn 0 0 1
vn 0 0 1
vn 0 0 1
vn -0.7197266 0.6943359 -0.008125305
vn -0.7197266 0.6943359 -0.008125305
vn -0.7197266 0.6943359 -0.008125305
vn -0.7197266 0.6938477 -0.02391052
vn -0.7197266 0.6938477 -0.02391052
vn -0.7197266 0.6938477 -0.02391052
vn -0.7197266 0.6938477 -0.02391052
vn -0.7197266 -0.6943359 -0.008125305
vn -0.7197266 -0.6943359 -0.008125305
vn -0.7197266 -0.6943359 -0.008125305
vn -0.7197266 -0.6938477 -0.02391052
vn -0.7197266 -0.6938477 -0.02391052
vn -0.7197266 -0.6938477 -0.02391052
vn -0.7197266 -0.6938477 -0.02391052
g Cube_0
f 3/3/3 2/2/2 1/1/1
f 6/6/6 5/5/5 4/4/4
f 9/9/9 8/8/8 7/7/7
f 12/12/12 11/11/11 10/10/10
f 15/15/15 14/14/14 13/13/13
f 16/16/16 15/15/15 13/13/13
f 17/17/17 15/15/15 16/16/16
f 18/18/18 17/17/17 16/16/16
f 21/21/21 20/20/20 19/19/19
f 19/19/19 22/22/22 21/21/21
f 19/19/19 23/23/23 22/22/22
f 26/26/26 25/25/25 24/24/24
f 27/27/27 26/26/26 24/24/24
f 28/28/28 26/26/26 27/27/27
f 29/29/29 28/28/28 27/27/27
f 28/28/28 29/29/29 30/30/30
f 30/30/30 31/31/31 28/28/28
f 29/29/29 32/32/32 30/30/30
f 29/29/29 33/33/33 32/32/32
f 36/36/36 35/35/35 34/34/34
f 35/35/35 37/37/37 34/34/34
f 34/34/34 37/37/37 38/38/38
f 37/37/37 39/39/39 38/38/38
f 42/42/42 41/41/41 40/40/40
f 40/40/40 43/43/43 42/42/42
f 40/40/40 44/44/44 43/43/43
f 44/44/44 45/45/45 43/43/43
f 48/48/48 47/47/47 46/46/46
f 47/47/47 49/49/49 46/46/46
f 46/46/46 49/49/49 50/50/50
f 49/49/49 51/51/51 50/50/50
f 54/54/54 53/53/53 52/52/52
f 55/55/55 54/54/54 52/52/52
f 58/58/58 57/57/57 56/56/56
f 59/59/59 58/58/58 56/56/56
f 62/62/62 61/61/61 60/60/60
f 63/63/63 62/62/62 60/60/60
f 66/66/66 65/65/65 64/64/64
f 64/64/64 67/67/67 66/66/66
f 64/64/64 68/68/68 67/67/67
f 71/71/71 70/70/70 69/69/69
f 72/72/72 71/71/71 69/69/69
f 73/73/73 71/71/71 72/72/72
f 74/74/74 73/73/73 72/72/72
f 77/77/77 76/76/76 75/75/75
f 78/78/78 77/77/77 75/75/75
f 81/81/81 80/80/80 79/79/79
f 80/80/80 82/82/82 79/79/79
f 80/80/80 83/83/83 82/82/82
f 86/86/86 85/85/85 84/84/84
f 87/87/87 86/86/86 84/84/84
f 90/90/90 89/89/89 88/88/88
f 91/91/91 90/90/90 88/88/88
f 94/94/94 93/93/93 92/92/92
f 95/95/95 94/94/94 92/92/92
f 98/98/98 97/97/97 96/96/96
f 98/98/98 96/96/96 99/99/99
f 100/100/100 98/98/98 99/99/99
f 103/103/103 102/102/102 101/101/101
f 104/104/104 103/103/103 101/101/101
f 107/107/107 106/106/106 105/105/105
f 108/108/108 107/107/107 105/105/105
f 111/111/111 110/110/110 109/109/109
f 112/112/112 111/111/111 109/109/109
f 115/115/115 114/114/114 113/113/113
f 116/116/116 115/115/115 113/113/113
f 117/117/117 116/116/116 113/113/113
f 118/118/118 116/116/116 117/117/117
f 119/119/119 118/118/118 117/117/117
f 122/122/122 121/121/121 120/120/120
f 123/123/123 122/122/122 120/120/120
f 124/124/124 123/123/123 120/120/120
f 125/125/125 123/123/123 124/124/124
f 126/126/126 125/125/125 124/124/124
f 129/129/129 128/128/128 127/127/127
f 128/128/128 130/130/130 127/127/127
f 128/128/128 131/131/131 130/130/130
f 131/131/131 132/132/132 130/130/130
f 135/135/135 134/134/134 133/133/133
f 133/133/133 136/136/136 135/135/135
f 133/133/133 137/137/137 136/136/136
f 140/140/140 139/139/139 138/138/138
f 139/139/139 141/141/141 138/138/138
f 139/139/139 142/142/142 141/141/141
f 142/142/142 143/143/143 141/141/141
f 144/144/144 143/143/143 142/142/142
f 142/142/142 145/145/145 144/144/144
f 144/144/144 146/146/146 143/143/143
f 146/146/146 147/147/147 143/143/143
f 150/150/150 149/149/149 148/148/148
f 151/151/151 150/150/150 148/148/148
f 151/151/151 148/148/148 152/152/152
f 153/153/153 151/151/151 152/152/152
f 156/156/156 155/155/155 154/154/154
f 154/154/154 157/157/157 156/156/156
f 154/154/154 158/158/158 157/157/157
f 158/158/158 159/159/159 157/157/157
f 162/162/162 161/161/161 160/160/160
f 163/163/163 162/162/162 160/160/160
f 163/163/163 160/160/160 164/164/164
f 165/165/165 163/163/163 164/164/164
f 168/168/168 167/167/167 166/166/166
f 169/169/169 168/168/168 166/166/166
f 172/172/172 171/171/171 170/170/170
f 173/173/173 172/172/172 170/170/170
f 176/176/176 175/175/175 174/174/174
f 177/177/177 176/176/176 174/174/174
f 180/180/180 179/179/179 178/178/178
f 178/178/178 181/181/181 180/180/180
f 178/178/178 182/182/182 181/181/181
f 185/185/185 184/184/184 183/183/183
f 186/186/186 185/185/185 183/183/183
f 189/189/189 188/188/188 187/187/187
f 188/188/188 190/190/190 187/187/187
f 188/188/188 191/191/191 190/190/190
f 191/191/191 192/192/192 190/190/190
f 195/195/195 194/194/194 193/193/193
f 196/196/196 195/195/195 193/193/193
f 199/199/199 198/198/198 197/197/197
f 200/200/200 199/199/199 197/197/197
f 201/201/201 199/199/199 200/200/200
f 204/204/204 203/203/203 202/202/202
f 205/205/205 204/204/204 202/202/202
f 208/208/208 207/207/207 206/206/206
f 209/209/209 208/208/208 206/206/206
f 212/212/212 211/211/211 210/210/210
f 213/213/213 212/212/212 210/210/210
f 216/216/216 215/215/215 214/214/214
f 214/214/214 215/215/215 217/217/217
f 215/215/215 218/218/218 217/217/217
f 221/221/221 220/220/220 219/219/219
f 222/222/222 221/221/221 219/219/219
f 225/225/225 224/224/224 223/223/223
f 226/226/226 225/225/225 223/223/223
f 229/229/229 228/228/228 227/227/227
f 230/230/230 229/229/229 227/227/227
f 233/233/233 232/232/232 231/231/231
f 232/232/232 234/234/234 231/231/231
f 234/234/234 235/235/235 231/231/231
f 234/234/234 236/236/236 235/235/235
f 236/236/236 237/237/237 235/235/235
f 240/240/240 239/239/239 238/238/238
f 239/239/239 241/241/241 238/238/238
f 241/241/241 242/242/242 238/238/238
f 241/241/241 243/243/243 242/242/242
f 243/243/243 244/244/244 242/242/242
