g WoodPiece
v -0.1761936 -0.02129929 1.253435
v -0.08926046 0.1810584 1.334221
v -0.07060287 -0.2115661 1.334221
v -0.218453 -1.002997E-05 -1.154897
v -0.09271977 -0.2589423 -1.264158
v -0.09271977 0.2589222 -1.264158
v 0.132518 0.3131105 -1.207755
v 0.1448088 0.3365687 -0.4355045
v -0.0987607 0.2901526 -0.4355045
v -0.09271977 0.2589222 -1.264158
v -0.09271977 -0.2589423 -1.264158
v -0.1190659 -0.264975 -0.4355044
v 0.1202542 -0.3347338 -0.4355044
v 0.132518 -0.3131306 -1.207754
v 0.1448088 0.3365687 -0.4355045
v 0.1440589 0.3160656 0.5233579
v -0.08463223 0.2724849 0.5233579
v -0.0987607 0.2901526 -0.4355045
v -0.1190659 -0.264975 -0.4355044
v 0.1210042 -0.3142304 0.523358
v 0.1202542 -0.3347338 -0.4355044
v -0.1036971 -0.2487328 0.523358
v 0.1462362 -0.2897626 1.298909
v -0.07060287 -0.2115661 1.334221
v -0.218453 -1.002997E-05 -1.154897
v -0.1190659 -0.264975 -0.4355044
v -0.09271977 -0.2589423 -1.264158
v -0.2345815 0.01866356 -0.435781
v -0.1036971 -0.2487328 0.523358
v -0.2198175 0.01795003 0.5254154
v -0.09271977 0.2589222 -1.264158
v -0.0987607 0.2901526 -0.4355045
v -0.2345815 0.01866356 -0.435781
v -0.218453 -1.002997E-05 -1.154897
v -0.08463223 0.2724849 0.5233579
v -0.08926046 0.1810584 1.334221
v -0.1761936 -0.02129929 1.253435
v -0.2198175 0.01795003 0.5254154
v -0.0987607 0.2901526 -0.4355045
v -0.08463223 0.2724849 0.5233579
v -0.2198175 0.01795003 0.5254154
v -0.2345815 0.01866356 -0.435781
v 0.1440589 0.3160656 0.5233579
v 0.1188785 0.285944 1.298909
v -0.08926046 0.1810584 1.334221
v -0.08463223 0.2724849 0.5233579
v -0.2198175 0.01795003 0.5254154
v -0.1761936 -0.02129929 1.253435
v -0.07060287 -0.2115661 1.334221
v -0.1036971 -0.2487328 0.523358
v 0.1462362 -0.2897626 1.298909
v -0.07060287 -0.2115661 1.334221
v -0.08926046 0.1810584 1.334221
v 0.1188785 0.285944 1.298909
v 0.132518 -0.3131306 -1.207754
v 0.132518 0.3131105 -1.207755
v -0.09271977 0.2589222 -1.264158
v -0.09271977 -0.2589423 -1.264158
v 0.1210042 -0.3142304 0.523358
v 0.1462362 -0.2897626 1.298909
v 0.1188785 0.285944 1.298909
v 0.1440589 0.3160656 0.5233579
v 0.1202542 -0.3347338 -0.4355044
v 0.1448088 0.3365687 -0.4355045
v 0.132518 0.3131105 -1.207755
v 0.132518 -0.3131306 -1.207754
vt 0.5315317 0.3195699
vt 0.5561846 0.3654289
vt 0.5561846 0.2743916
vt 0.3595207 0.06311642
vt 0.453581 0.03513487
vt 0.2985624 0.03659786
vt 0.6053644 0.09064867
vt 0.5991143 0.2594775
vt 0.6695107 0.2597415
vt 0.6713147 0.07860167
vt 0.7187508 0.6472195
vt 0.7171281 0.4660116
vt 0.6713148 0.4659194
vt 0.6783987 0.6347504
vt 0.5991143 0.2594775
vt 0.5991195 0.4693161
vt 0.6652157 0.469564
vt 0.6695107 0.2597415
vt 0.7171281 0.4660116
vt 0.6729569 0.2560856
vt 0.6713148 0.4659194
vt 0.7159717 0.2561723
vt 0.6734816 0.08629991
vt 0.7187508 0.07860167
vt 0.3595207 0.06311642
vt 0.453581 0.2440467
vt 0.453581 0.03513487
vt 0.3532624 0.2444965
vt 0.4527477 0.4859629
vt 0.3574287 0.4869519
vt 0.2985624 0.03659786
vt 0.2901172 0.2456645
vt 0.3532624 0.2444965
vt 0.3595207 0.06311642
vt 0.2992691 0.4874818
vt 0.3276921 0.6917182
vt 0.3765002 0.6705598
vt 0.3574287 0.4869519
vt 0.4616565 0.0515192
vt 0.4630429 0.2736569
vt 0.5207472 0.2743916
vt 0.5207472 0.05176695
vt 0.5991195 0.4693161
vt 0.6068226 0.6391025
vt 0.6713148 0.6473261
vt 0.6652157 0.469564
vt 0.3574287 0.4869519
vt 0.3765002 0.6705598
vt 0.4477106 0.6906545
vt 0.4527477 0.4859629
vt 0.5856867 0.0515192
vt 0.5207472 0.07199351
vt 0.5207472 0.1630308
vt 0.5856867 0.1850074
vt 0.5315317 0.4194336
vt 0.5315317 0.2743916
vt 0.4616565 0.286942
vt 0.4616565 0.4068832
vt 0.07672151 0.471783
vt 0.08488243 0.6674047
vt 0.2733808 0.6674047
vt 0.2833942 0.4717832
vt 0.06999861 0.2299238
vt 0.2901172 0.2299239
vt 0.2823606 0.0351349
vt 0.07714742 0.03513487
vn -0.641422 -0.0304806 0.7665825
vn -0.641422 -0.0304806 0.7665825
vn -0.641422 -0.0304806 0.7665825
vn -0.6559345 0 -0.754818
vn -0.6559345 0 -0.754818
vn -0.6559345 0 -0.754818
vn -0.2059561 0.9780179 -0.03260605
vn -0.2059561 0.9780179 -0.03260605
vn -0.2059561 0.9780179 -0.03260605
vn -0.2059561 0.9780179 -0.03260605
vn -0.2551318 -0.9666365 -0.02283994
vn -0.2551318 -0.9666365 -0.02283994
vn -0.2551318 -0.9666365 -0.02283994
vn -0.2551318 -0.9666365 -0.02283994
vn -0.1871564 0.9821087 0.02085375
vn -0.1871564 0.9821087 0.02085375
vn -0.1871564 0.9821087 0.02085375
vn -0.1871564 0.9821087 0.02085375
vn -0.2797811 -0.9598396 0.02074314
vn -0.2797811 -0.9598396 0.02074314
vn -0.2797811 -0.9598396 0.02074314
vn -0.2797811 -0.9598396 0.02074314
vn -0.3056171 -0.9509346 0.04818158
vn -0.3056171 -0.9509346 0.04818158
vn -0.9151478 -0.4025272 -0.02182645
vn -0.9151478 -0.4025272 -0.02182645
vn -0.9151478 -0.4025272 -0.02182645
vn -0.9151478 -0.4025272 -0.02182645
vn -0.9215192 -0.387934 0.01759948
vn -0.9215192 -0.387934 0.01759948
vn -0.8987483 0.4376341 -0.02698366
vn -0.8987483 0.4376341 -0.02698366
vn -0.8987483 0.4376341 -0.02698366
vn -0.8987483 0.4376341 -0.02698366
vn -0.90175 0.4281833 0.05921027
vn -0.90175 0.4281833 0.05921027
vn -0.90175 0.4281833 0.05921027
vn -0.90175 0.4281833 0.05921027
vn -0.8887933 0.4579641 0.01775851
vn -0.8887933 0.4579641 0.01775851
vn -0.8887933 0.4579641 0.01775851
vn -0.8887933 0.4579641 0.01775851
vn -0.3162526 0.9463369 0.06656422
vn -0.3162526 0.9463369 0.06656422
vn -0.3162526 0.9463369 0.06656422
vn -0.3162526 0.9463369 0.06656422
vn -0.9017857 -0.4298993 0.04437513
vn -0.9017857 -0.4298993 0.04437513
vn -0.9017857 -0.4298993 0.04437513
vn -0.9017857 -0.4298993 0.04437513
vn 0.1634524 0.00776739 0.9865206
vn 0.1634524 0.00776739 0.9865206
vn 0.1634524 0.00776739 0.9865206
vn 0.1634524 0.00776739 0.9865206
vn 0.2429179 0 -0.9700468
vn 0.2429179 0 -0.9700468
vn 0.2429179 0 -0.9700468
vn 0.2429179 0 -0.9700468
vn 0.9999937 0.003567973 -2.027957E-05
vn 0.9999937 0.003567973 -2.027957E-05
vn 0.9999937 0.003567973 -2.027957E-05
vn 0.9999937 0.003567973 -2.027957E-05
vn 0.9993317 -0.03655311 0
vn 0.9993317 -0.03655311 0
vn 0.999821 -0.01892052 5.181319E-06
vn 0.999821 -0.01892052 5.181319E-06
g WoodPiece_0
f 3/3/3 2/2/2 1/1/1
f 6/6/6 5/5/5 4/4/4
f 9/9/9 8/8/8 7/7/7
f 10/10/10 9/9/9 7/7/7
f 13/13/13 12/12/12 11/11/11
f 14/14/14 13/13/13 11/11/11
f 17/17/17 16/16/16 15/15/15
f 18/18/18 17/17/17 15/15/15
f 21/21/21 20/20/20 19/19/19
f 20/20/20 22/22/22 19/19/19
f 20/20/20 23/23/23 22/22/22
f 23/23/23 24/24/24 22/22/22
f 27/27/27 26/26/26 25/25/25
f 26/26/26 28/28/28 25/25/25
f 26/26/26 29/29/29 28/28/28
f 29/29/29 30/30/30 28/28/28
f 33/33/33 32/32/32 31/31/31
f 34/34/34 33/33/33 31/31/31
f 37/37/37 36/36/36 35/35/35
f 38/38/38 37/37/37 35/35/35
f 41/41/41 40/40/40 39/39/39
f 42/42/42 41/41/41 39/39/39
f 45/45/45 44/44/44 43/43/43
f 46/46/46 45/45/45 43/43/43
f 49/49/49 48/48/48 47/47/47
f 50/50/50 49/49/49 47/47/47
f 53/53/53 52/52/52 51/51/51
f 54/54/54 53/53/53 51/51/51
f 57/57/57 56/56/56 55/55/55
f 58/58/58 57/57/57 55/55/55
f 61/61/61 60/60/60 59/59/59
f 62/62/62 61/61/61 59/59/59
f 62/62/62 59/59/59 63/63/63
f 64/64/64 62/62/62 63/63/63
f 65/65/65 64/64/64 63/63/63
f 66/66/66 65/65/65 63/63/63
